<?xml version="1.0" standalone="no"?>
<!DOCTYPE svg PUBLIC "-//W3C//DTD SVG 20010904//EN"
 "http://www.w3.org/TR/2001/REC-SVG-20010904/DTD/svg10.dtd">
<svg version="1.0" xmlns="http://www.w3.org/2000/svg"
 width="6720.000000pt" height="4480.000000pt" viewBox="0 0 6720.000000 4480.000000"
 preserveAspectRatio="xMidYMid meet">

<g transform="translate(0.000000,4480.000000) scale(0.100000,-0.100000)"
fill="#000000" stroke="none">
<path d="M0 22400 l0 -22400 33600 0 33600 0 0 22400 0 22400 -33600 0 -33600
0 0 -22400z m6330 22320 c0 -23 -40 -46 -64 -37 -24 9 -19 25 12 41 37 21 52
20 52 -4z m21650 -45 c-14 -16 -40 -20 -40 -6 0 10 17 19 39 20 11 1 11 -2 1
-14z m5345 -55 c3 -5 -8 -16 -24 -25 -16 -8 -32 -11 -35 -6 -6 9 9 25 34 34 8
3 16 6 17 6 1 1 4 -3 8 -9z m-12037 -32 c-3 -7 -19 -18 -36 -25 -27 -11 -32
-11 -32 0 0 14 34 35 58 36 8 1 12 -4 10 -11z m26032 -3 c-7 -8 -18 -15 -24
-15 -6 0 -2 7 8 15 25 19 32 19 16 0z m11830 -10 c0 -15 -49 -45 -75 -45 -29
0 -12 34 25 49 36 14 50 13 50 -4z m-17631 -94 c10 -7 8 -12 -10 -25 -28 -19
-59 -21 -59 -3 0 8 10 19 23 25 28 13 29 14 46 3z m2861 -52 c0 -16 -31 -38
-52 -39 -26 0 -32 20 -12 35 23 17 64 19 64 4z m14700 -68 c0 -22 -63 -61 -76
-48 -10 10 10 37 34 46 35 13 42 13 42 2z m-26180 -46 c-7 -8 -22 -15 -34 -15
-21 1 -21 1 -2 15 27 21 53 20 36 0z m1928 -7 c-6 -16 -55 -34 -65 -24 -10 10
26 36 50 36 10 0 17 -5 15 -12z m24618 -73 c-27 -21 -53 -20 -36 0 7 8 22 15
34 15 21 -1 21 -1 2 -15z m-32401 -74 c9 -15 -47 -52 -74 -49 -34 4 -36 20 -4
40 31 19 69 23 78 9z m8645 -25 c0 -19 -58 -42 -71 -29 -7 7 -3 16 12 27 29
20 59 21 59 2z m1990 -15 c0 -16 -51 -43 -68 -36 -15 6 -14 9 7 26 24 20 61
26 61 10z m5144 -66 c-10 -8 -23 -14 -29 -14 -5 0 -1 6 9 14 11 8 24 15 30 15
5 0 1 -7 -10 -15z m-1259 -10 c0 -5 -16 -18 -35 -27 -26 -13 -36 -15 -42 -5
-12 19 -9 27 15 37 27 11 62 9 62 -5z m-25015 -55 c0 -17 -43 -50 -67 -50 -28
0 -29 14 -3 40 20 20 70 28 70 10z m18930 -10 c0 -23 -53 -52 -77 -43 -34 13
9 63 54 63 17 0 23 -6 23 -20z m-18140 -165 c0 -2 -10 -10 -22 -16 -21 -11
-22 -11 -9 4 13 16 31 23 31 12z m14426 -31 c-11 -8 -31 -14 -44 -14 -21 0
-23 2 -11 16 18 22 52 34 64 22 7 -6 3 -14 -9 -24z m-3220 -80 c-22 -16 -36
-18 -36 -6 0 11 43 32 50 25 3 -3 -4 -11 -14 -19z m-26414 -29 c1 -14 -49 -41
-59 -31 -4 4 3 16 16 27 24 20 42 21 43 4z m972 -21 c9 -33 6 -35 -55 -55 -43
-14 -49 -14 -45 -2 3 8 6 21 6 28 0 14 57 55 76 55 7 0 15 -12 18 -26z m33946
-109 c-7 -8 -20 -15 -29 -15 -13 1 -13 3 3 15 26 19 42 19 26 0z m-4801 -59
c5 -13 17 -26 26 -30 14 -5 11 -11 -20 -36 -48 -38 -72 -45 -93 -27 -9 7 -26
17 -36 21 -17 6 -13 12 30 51 55 50 80 56 93 21z m-8609 -21 c0 -17 -30 -35
-59 -35 -29 0 -26 17 7 34 35 19 52 20 52 1z m28887 -12 c5 -13 -46 -43 -72
-43 -22 0 -18 27 8 45 24 17 58 16 64 -2z m-21412 -32 c7 -12 -34 -41 -57 -41
-27 0 -22 17 10 34 32 18 39 19 47 7z m-6340 -171 c-3 -5 -13 -10 -21 -10 -8
0 -12 5 -9 10 3 6 13 10 21 10 8 0 12 -4 9 -10z m9831 -75 c-11 -8 -22 -12
-25 -9 -6 6 19 24 34 24 6 -1 1 -7 -9 -15z m-3596 -25 c0 -5 -4 -10 -9 -10 -5
0 -18 -3 -28 -7 -16 -6 -16 -5 -4 10 15 19 41 23 41 7z m-12415 -20 c-3 -5
-14 -10 -23 -10 -15 0 -15 2 -2 10 20 13 33 13 25 0z m-7475 -21 c0 -18 -41
-49 -65 -49 -40 0 -30 27 20 53 30 15 45 14 45 -4z m22350 11 c0 -12 -33 -30
-54 -30 -24 0 -19 19 7 30 30 12 47 12 47 0z m12556 -72 c9 -14 -31 -48 -57
-48 -27 0 -24 34 4 48 29 14 44 14 53 0z m4680 -42 c10 -25 -14 -52 -56 -65
-49 -14 -59 -10 -52 24 8 42 95 75 108 41z m-24946 -95 c0 -16 -43 -41 -70
-41 l-25 1 28 24 c28 25 67 34 67 16z m-6680 -56 c-7 -8 -20 -15 -29 -15 -11
1 -8 5 9 15 32 18 35 18 20 0z m16410 0 c-1 -6 -12 -17 -25 -25 -18 -11 -28
-11 -36 -3 -8 8 -4 15 17 27 31 16 46 17 44 1z m-12423 -12 c7 -20 -35 -53
-66 -53 -51 0 -49 25 4 53 33 18 56 18 62 0z m26073 -79 c0 -23 -29 -43 -62
-44 -34 0 -37 23 -6 44 30 21 68 21 68 0z m-36535 -14 c-3 -5 -12 -10 -18 -10
-7 0 -6 4 3 10 19 12 23 12 15 0z m22214 -4 c-2 -2 -15 -9 -29 -16 -23 -12
-24 -12 -11 3 7 10 20 17 29 17 8 0 13 -2 11 -4z m-15989 -30 c0 -3 -4 -8 -10
-11 -5 -3 -10 -1 -10 4 0 6 5 11 10 11 6 0 10 -2 10 -4z m9588 -28 c-7 -21
-53 -42 -74 -34 -18 7 -18 8 5 27 26 21 75 26 69 7z m5268 0 c10 -16 -44 -60
-70 -56 -32 5 -32 34 1 52 34 18 59 20 69 4z m-3796 -233 c-7 -8 -22 -15 -34
-15 -21 1 -21 1 -2 15 27 21 53 20 36 0z m30361 -255 c-25 -22 -41 -26 -41
-10 0 11 30 29 50 29 10 0 8 -6 -9 -19z m-28892 -36 c-13 -7 -26 -10 -29 -7
-8 8 32 33 43 26 5 -3 -1 -12 -14 -19z m-13414 6 c-3 -5 -12 -10 -18 -10 -7 0
-6 4 3 10 19 12 23 12 15 0z m42100 -9 c11 -19 -85 -75 -101 -59 -10 10 9 39
35 53 30 16 57 19 66 6z m-47704 -62 c-25 -21 -41 -24 -41 -9 0 11 53 41 60
33 3 -2 -6 -13 -19 -24z m22329 1 c-8 -5 -19 -10 -25 -10 -5 0 -3 5 5 10 8 5
20 10 25 10 6 0 3 -5 -5 -10z m-2630 -153 c0 -14 -40 -37 -65 -37 -24 0 -17
18 13 34 34 19 52 20 52 3z m-364 -33 c-22 -16 -36 -18 -36 -6 0 11 43 32 50
25 3 -3 -4 -11 -14 -19z m9794 -39 c-7 -8 -20 -15 -29 -15 -13 1 -13 3 3 15
26 19 42 19 26 0z m-13344 -10 c-22 -17 -46 -20 -46 -6 0 11 18 19 45 20 20 0
20 0 1 -14z m4204 1 c0 -18 -46 -48 -68 -44 -26 5 -26 33 0 46 33 15 68 15 68
-2z m-31214 -61 c-21 -16 -32 -13 -21 4 3 6 14 11 23 11 15 -1 15 -2 -2 -15z
m24149 5 c-3 -5 -14 -10 -23 -10 -15 0 -15 2 -2 10 20 13 33 13 25 0z m-19945
-48 c0 -5 -11 -14 -25 -20 -28 -13 -35 1 -7 17 21 13 32 14 32 3z m15571 -36
c-14 -16 -51 -28 -51 -16 0 11 30 29 49 30 10 0 11 -3 2 -14z m-16341 -5 c0
-9 -24 -21 -42 -21 -6 0 -6 6 2 15 14 16 40 20 40 6z m32040 -6 c15 -18 1 -39
-41 -61 -40 -20 -54 -18 -67 11 -11 23 -9 27 21 45 38 24 70 26 87 5z m-15720
-34 c0 -15 -51 -51 -71 -51 -20 0 -23 8 -11 26 18 26 82 46 82 25z m-8150 -31
c-24 -15 -37 -11 -16 5 11 8 22 12 25 9 3 -3 -1 -9 -9 -14z m32108 -40 c3 -18
-47 -50 -77 -50 -29 0 -28 34 2 55 27 19 71 16 75 -5z m-888 -69 c0 -11 -14
-25 -34 -35 -46 -22 -56 -20 -56 8 0 18 9 27 38 39 41 17 52 14 52 -12z
m-7370 -31 c0 -10 -32 -30 -49 -30 -19 0 -12 17 12 28 28 14 37 14 37 2z
m-31620 -130 c-24 -15 -37 -11 -16 5 11 8 22 12 25 9 3 -3 -1 -9 -9 -14z
m28007 -6 c8 -20 -34 -55 -61 -51 -32 4 -29 25 6 47 40 24 47 25 55 4z m-1578
-55 c21 -28 21 -32 8 -53 -22 -32 -74 -53 -96 -37 -9 6 -24 14 -33 17 -25 9
-23 15 19 62 45 50 71 53 102 11z m6517 -14 c-23 -17 -36 -19 -36 -6 0 11 18
19 40 20 11 0 10 -3 -4 -14z m-5555 -36 c-28 -23 -61 -25 -61 -4 0 20 61 47
75 34 7 -7 2 -17 -14 -30z m3279 13 c0 -14 -47 -35 -61 -27 -9 6 -7 11 6 22
21 14 55 18 55 5z m23467 2 c-3 -3 -12 -4 -19 -1 -8 3 -5 6 6 6 11 1 17 -2 13
-5z m-51967 -19 c0 -15 -40 -37 -50 -28 -5 4 37 43 46 43 2 0 4 -7 4 -15z
m40070 -75 c-16 -12 -28 -16 -35 -9 -12 12 11 29 40 29 18 0 18 -2 -5 -20z
m-14302 -92 c-8 -23 -56 -44 -69 -31 -8 8 -4 15 17 27 35 19 57 20 52 4z
m-23810 -32 c3 -36 -12 -47 -85 -61 l-32 -6 10 33 c5 18 9 34 9 35 0 7 58 32
75 33 17 0 21 -7 23 -34z m6702 15 c0 -13 -41 -41 -60 -41 -10 1 -6 9 13 25
29 26 47 32 47 16z m7121 -30 c-12 -21 -33 -31 -64 -31 -21 1 -21 2 6 25 35
31 73 35 58 6z m24944 -10 c3 -5 -7 -19 -21 -30 -20 -16 -30 -18 -40 -10 -17
14 -10 27 20 39 28 12 34 12 41 1z m-32334 -42 c-13 -11 -27 -17 -30 -13 -7 7
28 34 43 34 6 -1 0 -10 -13 -21z m49145 6 c-11 -8 -27 -15 -35 -15 -13 1 -12
4 3 15 11 8 27 15 35 15 13 -1 12 -4 -3 -15z m-4116 -19 c0 -18 -17 -30 -59
-45 -48 -16 -59 1 -21 33 34 28 80 35 80 12z m-57720 -14 c0 -5 -11 -14 -25
-20 -28 -13 -35 1 -7 17 21 13 32 14 32 3z m27780 -12 c0 -10 -32 -30 -49 -30
-19 0 -12 17 12 28 28 14 37 14 37 2z m6054 -4 c-10 -8 -21 -12 -24 -10 -5 6
21 24 34 24 6 0 1 -6 -10 -14z m-34254 -89 c0 -18 -42 -40 -66 -35 -18 3 -17
5 4 26 24 24 62 30 62 9z m19130 -27 c0 -10 -52 -40 -70 -40 -20 0 -9 21 22
40 31 18 48 18 48 0z m23198 -87 c-3 -41 -26 -59 -83 -65 -26 -3 -31 1 -33 22
-2 14 -8 29 -13 35 -17 18 33 45 84 45 l48 0 -3 -37z m-25198 -33 c0 -5 -13
-16 -30 -25 -25 -13 -30 -13 -30 -2 0 8 10 19 23 25 28 14 37 14 37 2z m11490
-18 c0 -13 -39 -32 -45 -22 -4 6 4 14 17 19 30 12 28 12 28 3z m-14610 -32 c0
-20 -45 -50 -75 -50 -24 0 -18 26 11 49 34 27 64 27 64 1z m-6660 -15 c-7 -8
-18 -15 -24 -15 -6 0 -2 7 8 15 25 19 32 19 16 0z m-8815 -15 c3 -5 -8 -16
-24 -25 -20 -10 -32 -11 -36 -4 -8 12 -8 12 20 27 25 14 32 15 40 2z m21605
-19 c0 -5 -7 -12 -16 -15 -24 -9 -28 -7 -14 9 14 17 30 20 30 6z m10086 -6
c-11 -8 -27 -15 -35 -15 -13 1 -12 4 3 15 11 8 27 15 35 15 13 -1 12 -4 -3
-15z m-15206 -50 c0 -2 -10 -10 -22 -16 -21 -11 -22 -11 -9 4 13 16 31 23 31
12z m12199 -29 c9 -11 6 -18 -15 -35 -39 -30 -96 -26 -76 6 7 10 61 42 73 43
4 0 12 -6 18 -14z m-29239 -217 c0 -16 -31 -38 -52 -39 -25 0 -22 16 4 34 26
19 48 21 48 5z m29716 -104 c-23 -17 -36 -19 -36 -6 0 11 18 19 40 20 11 0 10
-3 -4 -14z m-24506 -180 c-7 -8 -22 -15 -34 -15 -21 1 -21 1 -2 15 27 21 53
20 36 0z m-4824 -10 c-11 -8 -22 -12 -25 -9 -6 6 19 24 34 24 6 -1 1 -7 -9
-15z m14969 -15 c-3 -5 -12 -10 -18 -10 -7 0 -6 4 3 10 19 12 23 12 15 0z
m10015 0 c-8 -5 -22 -10 -30 -10 -13 0 -13 1 0 10 8 5 22 10 30 10 13 0 13 -1
0 -10z m20950 -39 c0 -9 -24 -21 -41 -21 -16 0 -10 18 9 23 28 8 32 7 32 -2z
m-16864 -47 c-23 -17 -36 -18 -36 -4 0 12 42 31 50 23 3 -3 -4 -11 -14 -19z
m26400 -16 c9 -14 -31 -48 -57 -48 -28 0 -23 27 9 44 33 19 39 19 48 4z
m-46315 -59 c-25 -20 -51 -25 -51 -10 0 5 12 18 28 29 36 27 58 9 23 -19z
m-4391 -19 c0 -20 -27 -40 -54 -40 -24 0 -19 35 7 48 33 16 47 14 47 -8z
m35995 -120 c-3 -5 -13 -10 -21 -10 -8 0 -12 5 -9 10 3 6 13 10 21 10 8 0 12
-4 9 -10z m-19795 -53 c0 -26 -37 -49 -72 -45 l-33 3 27 28 c28 28 78 37 78
14z m4800 -17 c-8 -5 -19 -10 -25 -10 -5 0 -3 5 5 10 8 5 20 10 25 10 6 0 3
-5 -5 -10z m34090 -51 c0 -16 -31 -38 -52 -39 -27 0 -22 17 10 34 33 19 42 19
42 5z m-56104 -34 c-11 -8 -22 -12 -25 -9 -6 6 19 24 34 24 6 -1 1 -7 -9 -15z
m52120 -7 c9 -14 -31 -48 -57 -48 -28 0 -23 27 9 44 33 19 39 19 48 4z
m-21046 -51 c0 -13 -40 -37 -60 -37 -19 0 -10 27 13 38 31 15 47 14 47 -1z
m-6460 -126 c0 -12 -40 -41 -57 -41 -21 0 -15 24 10 36 29 15 47 16 47 5z
m1131 -13 c25 -31 24 -44 -6 -73 -23 -24 -85 -36 -85 -16 0 5 -9 11 -20 14
-20 5 -20 6 2 40 38 58 78 71 109 35z m5269 -153 c0 -17 -49 -44 -67 -38 -20
7 -15 29 10 41 32 15 57 14 57 -3z m-2200 -65 c0 -15 -40 -32 -58 -25 -14 5
-13 9 8 20 29 17 50 19 50 5z m-10690 -10 c0 -10 -41 -30 -58 -30 -10 1 39 40
49 40 5 0 9 -5 9 -10z m11860 -18 c0 -8 -43 -32 -55 -32 -11 0 -4 29 8 33 20
9 47 8 47 -1z m-31230 -197 c0 -16 -30 -35 -54 -35 -21 0 -20 27 2 39 25 15
52 13 52 -4z m15846 0 c-26 -19 -42 -19 -26 0 7 8 20 15 29 15 13 -1 13 -3 -3
-15z m20988 -59 c-10 -8 -21 -12 -24 -10 -5 6 21 24 34 24 6 0 1 -6 -10 -14z
m8503 -82 c9 -26 -58 -63 -91 -51 -20 8 -9 42 17 55 27 14 69 11 74 -4z
m-17117 -39 c9 -11 7 -19 -14 -40 -27 -27 -67 -33 -84 -12 -13 15 -6 27 28 50
30 21 54 22 70 2z m33090 -19 c0 -2 -7 -7 -16 -10 -8 -3 -12 -2 -9 4 6 10 25
14 25 6z m-60189 -166 c-25 -21 -51 -26 -51 -10 0 13 31 29 55 29 19 0 19 -1
-4 -19z m14844 -59 c-3 -6 -14 -11 -23 -11 -15 1 -15 2 2 15 21 16 32 13 21
-4z m7755 -9 c0 -5 -11 -14 -25 -20 -31 -14 -33 1 -2 16 28 14 27 13 27 4z
m6990 -90 c0 -13 -49 -36 -57 -28 -5 4 1 14 11 22 22 15 46 19 46 6z m9558
-20 c5 -16 -58 -46 -70 -34 -13 13 -2 31 26 42 25 10 38 8 44 -8z m-10418 -31
c0 -11 -62 -41 -72 -35 -14 9 -9 21 15 32 27 13 57 15 57 3z m-30010 -21 c-11
-20 -50 -28 -50 -10 0 11 29 29 48 30 10 0 10 -5 2 -20z m37106 -25 c-23 -17
-36 -19 -36 -6 0 11 18 19 40 20 11 0 10 -3 -4 -14z m21874 -25 c0 -10 -52
-40 -70 -40 -19 0 -10 27 13 38 28 14 57 15 57 2z m-51420 -180 c0 -5 -9 -14
-20 -20 -24 -13 -26 -7 -4 14 18 18 24 20 24 6z m16560 -20 c0 -10 -41 -30
-58 -30 -10 1 39 40 49 40 5 0 9 -5 9 -10z m-2634 -25 c-23 -17 -36 -19 -36
-6 0 11 18 19 40 20 11 0 10 -3 -4 -14z m6374 -4 c0 -14 -41 -41 -62 -41 -25
0 -22 25 5 38 28 13 57 15 57 3z m9240 -41 c0 -14 -48 -43 -60 -35 -17 10 -12
25 13 35 30 12 47 12 47 0z m-28290 -59 c0 -10 -45 -41 -60 -41 -17 0 -11 28
8 39 21 13 52 14 52 2z m29220 -21 c-20 -13 -33 -13 -25 0 3 6 14 10 23 10 15
0 15 -2 2 -10z m-27120 -34 c0 -2 -7 -6 -15 -10 -8 -3 -15 -1 -15 4 0 6 7 10
15 10 8 0 15 -2 15 -4z m-4880 -105 c0 -23 -16 -37 -53 -46 -23 -6 -27 -4 -27
13 0 23 35 52 62 52 11 0 18 -7 18 -19z m21490 -44 c0 -13 -40 -37 -60 -37
-20 0 -9 20 18 34 34 19 42 19 42 3z m20532 -123 c-12 -8 -27 -12 -33 -8 -14
8 8 24 36 24 18 0 18 -1 -3 -16z m-23238 -149 c-25 -19 -40 -19 -24 0 7 8 20
15 28 15 13 0 12 -3 -4 -15z m-4766 -7 c-3 -7 -17 -19 -32 -27 -37 -18 -57 0
-25 23 28 19 62 21 57 4z m-4088 -72 c0 -2 -7 -6 -15 -10 -8 -3 -15 -1 -15 4
0 6 7 10 15 10 8 0 15 -2 15 -4z m-4170 -43 c0 -16 -17 -32 -43 -42 -21 -8
-27 -8 -27 4 0 7 10 21 22 29 24 17 48 21 48 9z m16610 -139 c0 -10 -33 -33
-47 -34 -21 0 -15 16 10 28 26 13 37 14 37 6z m2490 -2 c0 -13 -58 -43 -65
-33 -3 6 7 17 22 25 32 17 43 19 43 8z m6190 -32 c-8 -5 -22 -10 -30 -10 -13
0 -13 1 0 10 8 5 22 10 30 10 13 0 13 -1 0 -10z m-8270 -19 c0 -14 -41 -41
-62 -41 -25 0 -22 25 5 38 28 13 57 15 57 3z m-17139 -52 c-25 -21 -41 -24
-41 -9 0 11 53 41 60 33 3 -2 -6 -13 -19 -24z m-4521 1 c-6 -11 -12 -20 -15
-20 -2 0 -10 -3 -19 -6 -10 -4 -16 -1 -16 8 0 20 21 38 42 38 16 0 17 -3 8
-20z m-1649 -111 c-28 -23 -51 -25 -51 -4 0 20 52 47 65 34 7 -7 2 -17 -14
-30z m25639 -184 c-7 -8 -20 -15 -29 -15 -13 1 -13 3 3 15 26 19 42 19 26 0z
m4010 -59 c0 -19 -58 -42 -72 -28 -7 7 -2 15 18 26 36 19 54 20 54 2z m-4300
-35 c0 -12 -40 -41 -57 -41 -21 0 -15 26 10 38 28 14 47 15 47 3z m430 -6 c0
-2 -10 -9 -22 -15 -22 -11 -22 -10 -4 4 21 17 26 19 26 11z m-335 -54 c6 -11
-32 -41 -52 -41 -21 0 -15 26 10 38 28 14 35 14 42 3z m-9075 -5 c0 -2 -7 -7
-16 -10 -8 -3 -12 -2 -9 4 6 10 25 14 25 6z m1226 -41 c-11 -8 -25 -15 -30
-15 -6 0 -2 7 8 15 11 8 25 15 30 15 6 0 2 -7 -8 -15z m6564 -25 c0 -10 -32
-30 -49 -30 -19 0 -12 17 12 28 28 14 37 14 37 2z m1340 -39 c0 -12 -59 -35
-68 -27 -4 4 2 14 12 22 22 16 56 19 56 5z m-11130 -17 c0 -12 -35 -33 -55
-33 -19 0 -19 1 4 19 22 19 51 27 51 14z m20560 -14 c0 -10 -32 -30 -49 -30
-20 0 -11 20 12 30 29 12 37 12 37 0z m-9774 -15 c-23 -17 -36 -19 -36 -6 0
11 18 19 40 20 11 0 10 -3 -4 -14z m-2200 -40 c-11 -8 -25 -15 -30 -15 -6 0
-2 7 8 15 11 8 25 15 30 15 6 0 2 -7 -8 -15z m-25061 -15 c-3 -5 -12 -10 -18
-10 -7 0 -6 4 3 10 19 12 23 12 15 0z m35799 -96 c39 -15 4 -64 -58 -80 -19
-4 -28 -2 -32 10 -8 22 21 64 48 69 13 2 24 5 25 6 1 0 8 -2 17 -5z m-7624
-82 c0 -5 -11 -14 -25 -20 -28 -13 -44 2 -18 17 22 13 43 14 43 3z m-314 -27
c-11 -8 -25 -15 -30 -15 -6 0 -2 7 8 15 11 8 25 15 30 15 6 0 2 -7 -8 -15z
m14634 -20 c-14 -17 -40 -20 -40 -5 0 11 42 31 49 24 2 -2 -2 -10 -9 -19z
m-47090 -21 c0 -31 -60 -59 -75 -34 -8 13 31 50 55 50 12 0 20 -7 20 -16z
m7704 -119 c-6 -15 -42 -30 -51 -21 -10 9 18 36 38 36 12 0 16 -5 13 -15z
m24752 -37 c9 -14 -31 -48 -67 -55 -17 -3 -26 -10 -23 -18 6 -14 -41 -55 -63
-55 -33 0 -23 32 23 76 64 61 113 80 130 52z m-23301 -25 c-20 -18 -30 -22
-33 -13 -5 15 25 40 47 40 11 -1 7 -9 -14 -27z m22365 -402 c0 -14 -41 -41
-62 -41 -27 0 -22 17 10 34 31 18 52 20 52 7z m29920 -80 c0 -9 -41 -23 -48
-16 -2 2 -1 8 3 14 8 13 45 15 45 2z m-29764 -67 c-30 -21 -44 -16 -17 7 13
11 27 17 30 13 3 -3 -3 -12 -13 -20z m-28256 -3 c0 -12 -11 -23 -30 -29 -37
-13 -48 0 -20 28 25 25 50 26 50 1z m42020 -10 c0 -10 -42 -23 -49 -15 -7 6
20 24 37 24 6 0 12 -4 12 -9z m18000 -17 c0 -16 -56 -44 -90 -44 -26 0 -25 12
3 30 49 33 87 39 87 14z m-30730 -57 c0 -13 -40 -37 -60 -37 -19 0 -10 27 13
38 31 15 47 14 47 -1z m-13414 -33 c-22 -16 -36 -18 -36 -6 0 11 43 32 50 25
3 -3 -4 -11 -14 -19z m13608 -11 c10 -6 56 -103 56 -119 0 -15 -35 -54 -48
-54 -6 0 -12 -4 -14 -8 -6 -15 -75 -52 -97 -52 -42 0 -63 19 -56 48 4 15 14
35 23 45 13 14 14 22 5 36 -13 21 2 59 40 99 17 18 28 21 52 16 16 -3 34 -9
39 -11z m12221 -53 c6 -9 -50 -50 -68 -50 -4 0 -10 7 -14 16 -12 31 65 62 82
34z m13725 -81 c0 -21 -51 -49 -90 -49 -31 0 -24 28 13 50 43 27 77 26 77 -1z
m-16045 -99 c-19 -21 -50 -27 -60 -11 -7 13 24 30 54 31 23 0 24 -1 6 -20z
m2085 -99 c0 -25 -21 -41 -64 -48 -32 -5 -36 -3 -36 17 0 30 27 49 68 50 25 0
32 -4 32 -19z m-43882 -98 c-3 -19 -53 -41 -64 -30 -11 11 27 47 48 47 13 0
18 -6 16 -17z m41508 9 c7 -4 12 -31 12 -60 0 -45 -4 -55 -22 -61 -31 -12
-112 -19 -125 -12 -6 4 -12 31 -13 60 -2 42 1 56 17 67 20 15 112 19 131 6z
m-14356 -11 c0 -5 -11 -16 -25 -25 -46 -30 -78 -13 -33 18 24 17 58 21 58 7z
m-18629 -33 c-28 -22 -41 -23 -41 -3 0 17 39 36 54 27 5 -3 -1 -13 -13 -24z
m4952 26 c11 -11 -13 -45 -40 -55 -42 -16 -54 7 -20 37 28 24 48 30 60 18z
m-14113 -94 c-8 -5 -19 -10 -25 -10 -5 0 -3 5 5 10 8 5 20 10 25 10 6 0 3 -5
-5 -10z m32440 -40 c-28 -22 -40 -25 -40 -10 0 11 30 29 50 29 10 1 6 -6 -10
-19z m-11845 0 c-3 -5 -12 -10 -18 -10 -7 0 -6 4 3 10 19 12 23 12 15 0z
m-11871 -48 c7 -12 -42 -38 -51 -28 -5 4 1 14 11 22 23 16 33 18 40 6z m18014
-29 c-5 -25 -54 -51 -69 -36 -9 9 -4 17 22 32 41 25 51 26 47 4z m5612 -3 c0
-12 -33 -30 -54 -30 -23 0 -19 15 7 28 28 14 47 15 47 2z m-3720 -135 c-7 -8
-18 -15 -24 -15 -6 0 -2 7 8 15 25 19 32 19 16 0z m4219 -79 c18 -21 2 -47
-43 -66 -48 -22 -56 -19 -56 21 0 24 6 33 33 44 41 18 52 18 66 1z m67 -11
c-11 -8 -25 -15 -30 -15 -6 0 -2 7 8 15 11 8 25 15 30 15 6 0 2 -7 -8 -15z
m149 -74 c0 -21 -60 -54 -85 -46 -25 8 -25 20 1 46 24 24 84 24 84 0z m15995
1 c0 -18 -37 -42 -65 -42 -26 0 -29 23 -5 42 30 24 70 24 70 0z m13930 8 c0
-13 -34 -30 -62 -30 l-23 1 24 19 c24 21 61 27 61 10z m-30024 -106 c-19 -13
-46 -19 -46 -9 0 8 55 34 60 28 3 -2 -4 -11 -14 -19z m-12830 1 c-23 -17 -36
-19 -36 -6 0 11 18 19 40 20 11 0 10 -3 -4 -14z m-10996 -109 c0 -15 -29 -30
-39 -20 -3 3 3 12 13 20 24 17 26 17 26 0z m-3130 -16 c0 -5 -4 -10 -10 -10
-5 0 -10 5 -10 10 0 6 5 10 10 10 6 0 10 -4 10 -10z m51570 2 c0 -5 -11 -14
-25 -20 -28 -13 -44 2 -18 17 22 13 43 14 43 3z m4930 -70 c0 -10 -45 -32 -65
-32 -23 0 -18 20 8 30 29 11 57 12 57 2z m-40693 -49 c9 -22 -33 -55 -65 -51
-38 4 -38 25 0 48 40 24 57 25 65 3z m17989 2 c-11 -8 -22 -12 -25 -9 -6 6 19
24 34 24 6 -1 1 -7 -9 -15z m-7676 -9 c0 -15 -59 -48 -72 -40 -15 10 -8 23 20
38 34 19 52 20 52 2z m2770 -16 c0 -5 -14 -17 -31 -26 -40 -20 -62 -4 -28 20
26 18 59 21 59 6z m-2360 -9 c0 -6 -10 -17 -22 -25 -27 -19 -71 -21 -66 -3 9
25 88 50 88 28z m26870 -91 c-19 -13 -30 -13 -30 0 0 6 10 10 23 10 18 0 19
-2 7 -10z m-41670 -45 c-7 -8 -20 -15 -29 -15 -13 1 -13 3 3 15 26 19 42 19
26 0z m-8640 -19 c0 -26 -33 -56 -62 -56 -41 0 -31 41 15 64 43 21 47 20 47
-8z m29294 -101 c7 -18 -13 -38 -54 -55 -56 -23 -66 25 -11 55 34 18 57 19 65
0z m-34768 -137 c8 -13 -30 -48 -52 -48 -22 0 -17 27 8 44 27 19 35 20 44 4z
m20924 -4 c0 -12 -34 -33 -52 -34 -10 0 -18 4 -18 10 0 5 8 14 18 19 19 12 52
14 52 5z m-9700 -29 c0 -2 -10 -10 -22 -16 -21 -11 -22 -11 -9 4 13 16 31 23
31 12z m21140 -23 c0 -14 -23 -32 -42 -32 -25 0 -23 15 5 28 27 13 37 14 37 4z
m-27380 -279 c0 -12 -33 -43 -47 -43 -20 0 -16 17 9 34 24 17 38 20 38 9z
m-3062 -105 c-4 -28 -52 -58 -68 -42 -14 14 -4 39 23 52 35 17 49 14 45 -10z
m30234 -43 c1 -6 -11 -17 -25 -25 -20 -11 -29 -12 -38 -3 -8 8 -4 15 17 27 31
16 45 17 46 1z m-1632 -65 c0 -8 -51 -40 -65 -40 -15 0 -2 28 18 38 28 14 47
15 47 2z m974 -18 c7 -11 -5 -27 -31 -41 -52 -27 -87 1 -41 33 24 17 64 21 72
8z m-35786 -32 c11 -18 9 -22 -20 -40 -45 -27 -78 -26 -78 2 0 51 72 79 98 38z
m49432 10 c0 -10 -32 -30 -49 -30 -20 0 -11 20 12 30 29 12 37 12 37 0z
m-39210 -45 c0 -26 -25 -45 -59 -45 -34 0 -25 36 14 58 31 18 45 14 45 -13z
m29490 -20 c0 -17 -49 -44 -67 -38 -21 7 -15 21 15 37 35 19 52 20 52 1z
m-6880 -74 c0 -6 -10 -17 -22 -25 -43 -30 -81 -11 -40 20 20 15 62 18 62 5z
m7420 -115 c0 -2 -11 -11 -25 -20 -31 -20 -58 -10 -30 11 17 12 55 18 55 9z
m-5590 -104 c0 -13 -49 -36 -57 -28 -5 4 1 14 11 22 22 15 46 19 46 6z m-9370
-37 c0 -19 -46 -49 -65 -41 -19 7 -10 31 18 44 31 15 47 14 47 -3z m-7909
-177 c-26 -21 -55 -24 -49 -5 6 16 49 37 62 30 5 -3 -1 -14 -13 -25z m-6441
-58 c0 -9 -31 -30 -44 -30 -12 0 -6 28 7 33 20 9 37 8 37 -3z m576 -22 c9 -14
-31 -48 -57 -48 -26 0 -24 24 4 43 27 19 43 21 53 5z m13874 -12 c0 -16 -57
-42 -68 -31 -9 8 35 45 54 45 8 0 14 -6 14 -14z m-5220 -12 c0 -10 -33 -33
-47 -34 -21 0 -15 16 10 28 26 13 37 14 37 6z m5300 -12 c0 -5 -11 -14 -25
-20 -28 -13 -35 1 -7 17 21 13 32 14 32 3z m-15580 -91 c0 -11 -39 -41 -52
-41 -15 0 -8 29 10 39 22 13 42 14 42 2z m55636 -56 c-22 -17 -36 -19 -36 -7
0 14 12 22 34 22 21 -1 21 -1 2 -15z m-31222 -59 c-10 -8 -21 -12 -24 -10 -5
6 21 24 34 24 6 0 1 -6 -10 -14z m-24244 -85 c0 -10 -24 -21 -43 -21 -7 0 -3
7 7 15 22 17 36 19 36 6z m14220 -1 c0 -11 -33 -30 -52 -30 -7 1 -3 9 11 20
25 22 41 26 41 10z m13430 0 c0 -14 -48 -35 -58 -26 -8 9 26 36 45 36 7 0 13
-5 13 -10z m23170 -110 c15 0 20 -7 20 -25 0 -14 -4 -25 -10 -25 -5 0 -10 -6
-10 -14 0 -19 -23 -26 -65 -19 -43 7 -54 26 -31 52 9 10 16 22 16 28 0 5 10
15 23 20 16 8 24 7 30 -3 4 -8 17 -14 27 -14z m-27673 -27 c4 -11 -51 -53 -70
-53 -21 0 -18 34 4 51 26 21 60 21 66 2z m-21047 -101 c0 -14 -23 -32 -42 -32
-23 0 -23 16 0 29 21 13 42 14 42 3z m19290 -27 c0 -16 -30 -35 -54 -35 -24 0
-19 25 7 38 31 15 47 14 47 -3z m29020 -146 c0 -13 -43 -38 -70 -41 -37 -4
-31 24 9 44 32 16 61 15 61 -3z m-56160 -202 c0 -22 -32 -47 -60 -47 -19 0
-10 39 12 54 32 22 48 20 48 -7z m22440 -55 c0 -5 -11 -14 -25 -20 -28 -13
-35 1 -7 17 21 13 32 14 32 3z m4150 0 c0 -12 -51 -34 -59 -27 -7 8 28 35 46
35 7 0 13 -4 13 -8z m-19440 -105 c0 -16 -9 -28 -25 -35 -36 -17 -45 -15 -45
8 0 17 39 45 68 50 1 0 2 -11 2 -23z m9486 -109 c10 -15 -32 -48 -62 -48 -35
0 -29 25 11 48 26 15 42 15 51 0z m11964 -212 c0 -2 -7 -7 -16 -10 -8 -3 -12
-2 -9 4 6 10 25 14 25 6z m18344 -5 c11 -17 -5 -37 -38 -49 -57 -21 -82 -11
-58 24 19 28 84 45 96 25z m-11629 -95 c-11 -8 -24 -12 -28 -9 -11 7 12 23 32
23 11 0 9 -4 -4 -14z m16361 -48 c8 -13 -22 -38 -48 -38 -25 0 -22 25 5 38 29
14 34 14 43 0z m-55226 -193 c0 -16 -30 -35 -54 -35 -26 0 -18 28 11 44 30 15
43 13 43 -9z m22511 5 c-25 -21 -51 -26 -51 -10 0 13 31 29 55 29 19 0 19 -1
-4 -19z m-8171 -173 c0 -25 -33 -47 -70 -47 -33 0 -23 36 15 58 34 19 55 15
55 -11z m2843 -18 c-10 -9 -28 -20 -40 -24 -35 -10 -31 30 5 49 37 19 62 2 35
-25z m28687 -9 c-19 -13 -30 -13 -30 0 0 6 10 10 23 10 18 0 19 -2 7 -10z
m-38012 -77 c4 -25 -36 -57 -65 -51 -30 5 -27 41 4 60 35 22 57 19 61 -9z
m34172 -113 c0 -13 -41 -30 -54 -22 -11 6 22 32 41 32 7 0 13 -5 13 -10z
m-8600 -108 c0 -8 -43 -32 -55 -32 -14 0 -2 18 18 28 28 13 37 14 37 4z
m-8600 -62 c-8 -5 -17 -7 -19 -4 -3 3 1 9 9 14 8 5 17 7 19 4 3 -3 -1 -9 -9
-14z m20907 -66 c4 -11 -38 -34 -62 -34 -23 0 -18 26 8 38 26 13 49 11 54 -4z
m-2331 -39 c-23 -17 -36 -19 -36 -6 0 11 18 19 40 20 11 0 10 -3 -4 -14z m214
-58 c0 -16 -47 -40 -61 -31 -13 8 -1 24 25 34 30 12 36 12 36 -3z m-3930 -46
c0 -13 -47 -41 -70 -41 -27 0 -26 28 3 40 29 12 67 12 67 1z m5728 -43 c4 -21
-57 -54 -82 -45 -25 10 -19 35 12 51 34 19 66 16 70 -6z m2230 -86 c5 -16 -58
-46 -70 -34 -13 13 -2 31 26 42 25 10 38 8 44 -8z m-28938 -207 c0 -18 -59
-50 -71 -38 -10 10 0 26 26 41 28 16 45 15 45 -3z m28850 -18 c0 -16 -47 -40
-60 -32 -13 8 -1 33 18 38 32 9 42 7 42 -6z m-34080 -122 c0 -14 -29 -35 -49
-35 -20 0 -11 27 12 38 30 15 37 14 37 -3z m-1170 -75 c0 -5 -13 -16 -30 -25
-26 -14 -30 -14 -30 -1 0 16 26 35 48 36 6 0 12 -4 12 -10z m5120 -49 c0 -5
-10 -11 -22 -14 -22 -6 -22 -6 -4 8 23 17 26 18 26 6z m10764 -66 c-1 -5 -16
-18 -33 -29 -25 -14 -35 -16 -44 -7 -9 10 -6 17 12 32 25 20 67 23 65 4z
m9132 -51 c-19 -13 -46 -19 -46 -9 0 8 55 34 60 28 3 -2 -4 -11 -14 -19z
m-19736 -28 c0 -15 -59 -48 -72 -40 -15 10 -8 31 15 42 31 15 57 14 57 -2z
m21996 -81 c-23 -17 -36 -19 -36 -6 0 5 8 12 18 14 32 9 37 6 18 -8z m-25972
-29 c-10 -8 -21 -12 -24 -10 -5 6 21 24 34 24 6 0 1 -6 -10 -14z m10842 -51
c-11 -8 -25 -15 -30 -15 -6 0 -2 7 8 15 11 8 25 15 30 15 6 0 2 -7 -8 -15z
m23929 -24 c7 -12 -34 -41 -57 -41 -10 0 -18 7 -18 15 0 26 61 47 75 26z
m-42745 -35 c0 -11 -19 -15 -25 -6 -3 5 1 10 9 10 9 0 16 -2 16 -4z m12790
-16 c0 -11 -33 -30 -52 -30 -7 1 -3 9 11 20 25 22 41 26 41 10z m3246 -56
c-22 -16 -36 -18 -36 -6 0 11 43 32 50 25 3 -3 -4 -11 -14 -19z m-5436 -64 c0
-12 -38 -32 -52 -28 -14 5 19 38 38 38 8 0 14 -4 14 -10z m36230 -3 c0 -13
-40 -37 -60 -37 -15 0 -12 38 3 43 25 11 57 7 57 -6z m-49725 -86 c-3 -6 -14
-11 -23 -11 -15 1 -15 2 2 15 21 16 32 13 21 -4z m27201 -156 c-23 -17 -36
-19 -36 -6 0 11 18 19 40 20 11 0 10 -3 -4 -14z m-12406 -70 c0 -19 -35 -37
-63 -33 l-22 3 23 23 c25 25 62 30 62 7z m-5029 -28 c-6 -8 -21 -17 -31 -20
-29 -7 -26 25 3 39 27 13 45 1 28 -19z m7769 -21 c-8 -8 -25 -17 -37 -21 -34
-10 -30 21 5 39 32 17 55 4 32 -18z m-9774 -91 c-11 -8 -22 -12 -25 -9 -6 6
19 24 34 24 6 -1 1 -7 -9 -15z m11104 -108 c0 -13 -40 -37 -60 -37 -20 0 -9
20 18 34 34 19 42 19 42 3z m12401 -27 c-25 -21 -51 -26 -51 -10 0 13 31 29
55 29 19 0 19 -1 -4 -19z m11809 -95 c17 -20 6 -33 -41 -46 -48 -15 -72 -1
-48 27 26 32 70 42 89 19z m-22830 -89 c0 -18 -38 -46 -62 -46 -27 0 -21 28
10 44 35 19 52 20 52 2z m-10030 -24 c0 -23 -48 -48 -63 -33 -6 6 2 17 24 30
41 25 39 25 39 3z m-12283 -17 c7 -19 -23 -44 -54 -45 -48 0 -14 57 35 59 7 1
15 -6 19 -14z m35709 -24 c-8 -12 -46 -21 -46 -11 0 9 18 18 38 19 7 1 11 -3
8 -8z m-21056 -46 c-15 -18 -50 -26 -50 -11 0 14 41 36 53 29 4 -3 3 -11 -3
-18z m27590 -51 c0 -16 -65 -48 -80 -39 -17 11 -11 32 13 43 33 16 67 15 67
-4z m13520 -209 c-7 -8 -22 -15 -34 -15 -21 1 -21 1 -2 15 27 21 53 20 36 0z
m-31580 -55 c-24 -15 -36 -11 -14 4 10 8 21 12 24 10 2 -3 -2 -9 -10 -14z
m25396 -56 c-25 -18 -56 -18 -56 0 0 18 51 37 65 24 7 -6 3 -14 -9 -24z
m-26116 11 c-14 -17 -40 -20 -40 -6 0 8 18 16 44 20 5 0 3 -6 -4 -14z m-15046
-62 c-10 -7 -22 -12 -27 -10 -16 5 -10 22 14 34 30 16 41 -4 13 -24z m-1914
12 c0 -8 -14 -22 -30 -30 -28 -14 -31 -14 -36 0 -7 18 21 44 49 45 9 0 17 -7
17 -15z m20560 -135 c0 -12 -33 -30 -54 -30 -23 0 -19 15 7 28 28 14 47 15 47
2z m-25407 -34 c8 -20 -13 -44 -44 -51 -45 -11 -47 28 -4 53 27 15 42 15 48
-2z m12147 -36 c0 -14 -48 -35 -58 -26 -8 9 26 36 45 36 7 0 13 -5 13 -10z
m35880 -30 c0 -9 -31 -30 -44 -30 -14 0 -4 29 12 33 29 8 32 7 32 -3z m-10305
-30 c8 -13 -55 -44 -67 -32 -6 6 -2 15 13 26 27 18 45 20 54 6z m17370 -119
c8 -13 -35 -41 -62 -41 -27 0 -31 25 -5 39 22 13 59 14 67 2z m-44540 -30 c7
-12 -33 -51 -52 -51 -23 0 -14 29 15 44 33 18 30 18 37 7z m43835 -65 c0 -21
-40 -46 -72 -46 -21 0 -28 5 -28 20 0 23 29 38 73 39 17 1 27 -4 27 -13z
m-35290 -26 c0 -14 -48 -35 -58 -26 -8 9 26 36 45 36 7 0 13 -5 13 -10z
m12660 -19 c0 -12 -59 -35 -68 -27 -4 4 2 14 12 22 22 16 56 19 56 5z m-7240
-19 c0 -5 -11 -14 -25 -20 -20 -9 -25 -9 -25 2 0 14 14 24 38 25 6 1 12 -3 12
-7z m-13884 -37 c-22 -17 -36 -19 -36 -7 0 14 12 22 34 22 21 -1 21 -1 2 -15z
m19574 -13 c0 -5 -11 -14 -25 -20 -28 -13 -35 1 -7 17 21 13 32 14 32 3z
m-3490 -16 c0 -19 -58 -42 -71 -29 -7 7 -3 16 12 27 29 20 59 21 59 2z
m-11950 -16 c0 -14 -48 -35 -58 -26 -8 9 26 36 45 36 7 0 13 -5 13 -10z
m-3850 -57 c0 -16 -16 -32 -42 -42 -37 -14 -49 6 -18 31 22 18 60 25 60 11z
m6880 -7 c0 -18 -38 -46 -62 -46 -26 0 -22 35 5 48 32 15 57 14 57 -2z m10938
2 c32 -32 -6 -78 -65 -78 -28 0 -33 4 -33 23 0 27 9 40 35 55 26 15 48 15 63
0z m-5528 -28 c0 -10 -32 -30 -49 -30 -19 0 -12 17 12 28 28 14 37 14 37 2z
m-4950 -110 c0 -5 -14 -17 -31 -26 -40 -20 -62 -4 -28 20 26 18 59 21 59 6z
m23088 -11 c3 -19 -69 -55 -92 -46 -27 10 -18 37 17 52 39 18 71 15 75 -6z
m-24838 -14 c16 -19 2 -38 -41 -55 -21 -9 -33 -10 -41 -2 -16 16 -1 47 30 59
37 15 38 15 52 -2z m30700 -15 c-19 -12 -30 -12 -30 -1 0 10 31 20 40 14 2 -2
-2 -8 -10 -13z m-8400 -58 c0 -8 -43 -32 -55 -32 -11 0 -4 29 8 33 20 9 47 8
47 -1z m3466 -83 c9 -16 -16 -38 -54 -45 -27 -6 -32 -4 -32 13 0 28 71 55 86
32z m-44815 -115 c11 -14 10 -19 -10 -35 -13 -11 -34 -19 -47 -19 -34 0 -32
35 4 54 35 19 37 19 53 0z m23195 -39 c-11 -8 -25 -15 -30 -15 -6 0 -2 7 8 15
11 8 25 15 30 15 6 0 2 -7 -8 -15z m10600 -21 c-23 -17 -36 -18 -36 -4 0 12
42 31 50 23 3 -3 -4 -11 -14 -19z m24614 10 c0 -16 -65 -48 -80 -39 -16 10
-12 33 8 44 27 16 72 13 72 -5z m-45323 -21 c8 -21 -30 -53 -63 -53 -34 0 -32
35 4 54 36 20 51 20 59 -1z m15282 -127 c-15 -13 -49 -25 -49 -17 0 5 8 12 18
14 24 6 36 8 31 3z m12941 -256 c-20 -13 -33 -13 -25 0 3 6 14 10 23 10 15 0
15 -2 2 -10z m13795 -40 c9 -15 -11 -37 -42 -45 -45 -11 -54 27 -9 45 29 12
44 12 51 0z m-20285 -78 c0 -12 -51 -34 -59 -27 -7 8 28 35 46 35 7 0 13 -4
13 -8z m-4976 -17 c-10 -8 -23 -14 -29 -14 -5 0 -1 6 9 14 11 8 24 15 30 15 5
0 1 -7 -10 -15z m19516 -48 c0 -11 -39 -37 -55 -37 -16 0 -1 32 18 40 31 12
37 12 37 -3z m-46362 -34 c2 -15 -6 -24 -28 -33 -52 -21 -68 24 -17 48 29 14
41 10 45 -15z m38632 -43 c-24 -15 -37 -11 -16 5 11 8 22 12 25 9 3 -3 -1 -9
-9 -14z m-5050 -19 c0 -12 -20 -27 -47 -35 -28 -9 -32 18 -5 33 21 13 52 14
52 2z m-4560 -51 c0 -12 -60 -44 -67 -36 -10 10 7 37 29 45 24 9 38 6 38 -9z
m14887 -96 c4 -11 -39 -34 -63 -34 -22 0 -12 23 17 37 26 14 41 13 46 -3z
m8492 -78 c14 -17 -4 -33 -47 -42 -28 -6 -32 -4 -32 14 0 13 10 24 28 30 37
14 38 14 51 -2z m-11939 -4 c0 -5 -12 -14 -26 -21 -32 -14 -54 -3 -29 16 21
14 55 18 55 5z m-23340 -12 c0 -14 -48 -35 -58 -26 -8 9 26 36 45 36 7 0 13
-5 13 -10z m2390 -8 c0 -8 -43 -32 -55 -32 -11 0 -4 29 8 33 20 9 47 8 47 -1z
m-22074 -23 c8 -13 -13 -34 -43 -44 -18 -5 -23 -2 -23 13 0 27 53 52 66 31z
m17764 -24 c-15 -18 -50 -26 -50 -11 0 14 41 36 53 29 4 -3 3 -11 -3 -18z
m35476 -7 c9 -14 -31 -48 -56 -48 -22 0 -33 25 -17 38 28 22 63 27 73 10z
m-24936 -118 c-24 -15 -37 -11 -16 5 11 8 22 12 25 9 3 -3 -1 -9 -9 -14z
m-1670 -83 c0 -13 -40 -37 -60 -37 -20 0 -9 20 18 34 34 19 42 19 42 3z
m-24911 -133 c-13 -16 -39 -19 -39 -4 0 12 32 30 43 23 4 -3 3 -11 -4 -19z
m40838 -121 c5 -13 -46 -43 -72 -43 -8 0 -15 9 -15 19 0 31 78 52 87 24z
m-15811 -4 c9 -15 -15 -36 -48 -44 -23 -6 -28 -4 -28 12 0 30 61 55 76 32z
m7360 -24 c-27 -21 -53 -20 -36 0 7 8 22 15 34 15 21 -1 21 -1 2 -15z m19714
-5 c0 -9 -31 -30 -44 -30 -14 0 -4 29 12 33 29 8 32 7 32 -3z m-31600 -50 c0
-14 -48 -35 -58 -26 -8 9 26 36 45 36 7 0 13 -5 13 -10z m18610 -120 c-20 -13
-33 -13 -25 0 3 6 14 10 23 10 15 0 15 -2 2 -10z m516 -255 c-23 -17 -36 -19
-36 -6 0 11 18 19 40 20 11 0 10 -3 -4 -14z m-14141 -83 c-3 -3 -11 0 -18 7
-9 10 -8 11 6 5 10 -3 15 -9 12 -12z m61 -23 c8 -14 -10 -11 -32 6 -18 13 -18
14 4 8 12 -3 25 -9 28 -14z m16469 -9 c-3 -5 -11 -10 -16 -10 -6 0 -7 5 -4 10
3 6 11 10 16 10 6 0 7 -4 4 -10z m-37141 -67 c-23 -17 -34 -17 -34 0 0 18 43
39 49 24 2 -6 -4 -16 -15 -24z m20861 -13 c3 -6 -1 -7 -9 -4 -18 7 -21 14 -7
14 6 0 13 -4 16 -10z m171 -74 c65 -29 155 -70 199 -91 44 -20 123 -57 175
-80 52 -24 136 -62 185 -85 78 -36 284 -131 495 -228 36 -16 99 -45 140 -65
130 -60 200 -93 380 -175 225 -102 556 -255 640 -294 36 -16 148 -68 250 -115
102 -47 237 -109 300 -138 63 -30 178 -81 255 -115 315 -140 284 -126 611
-278 412 -192 587 -273 784 -362 240 -109 239 -108 545 -250 624 -290 798
-371 880 -410 50 -23 153 -71 230 -105 77 -35 203 -92 280 -128 135 -62 209
-97 495 -234 74 -36 156 -73 182 -84 26 -10 125 -54 220 -97 95 -43 225 -102
288 -130 63 -28 179 -83 258 -122 79 -38 145 -70 147 -70 15 0 258 -123 249
-127 -5 -2 -45 13 -88 33 -43 19 -80 33 -83 30 -3 -3 -11 1 -19 8 -7 8 -64 35
-126 61 -129 54 -185 79 -316 141 -51 24 -95 44 -98 44 -4 0 -32 15 -63 34
-31 19 -85 46 -121 61 -36 15 -128 57 -205 95 -77 37 -156 75 -175 83 -19 9
-71 32 -115 52 -44 21 -143 64 -220 97 -77 33 -158 68 -180 79 -45 21 -241
113 -360 169 -44 20 -111 52 -149 70 -38 17 -133 60 -210 95 -161 72 -246 111
-364 166 -46 21 -85 39 -87 39 -3 0 -30 12 -62 26 -32 14 -98 44 -148 66 -49
22 -137 63 -193 89 -57 27 -106 49 -108 49 -3 0 -82 38 -177 84 -95 46 -192
93 -217 104 -25 11 -183 84 -351 161 -169 78 -309 141 -312 141 -3 0 -43 18
-89 39 -46 22 -121 57 -168 79 -194 90 -235 110 -458 218 -129 63 -236 114
-238 114 -2 0 -41 17 -86 39 -46 21 -135 62 -198 91 -63 29 -155 72 -205 95
-85 40 -122 58 -305 142 -41 19 -131 61 -200 93 -69 32 -145 67 -170 78 -25
11 -92 42 -150 70 -117 55 -276 128 -515 237 -204 93 -684 315 -839 389 -65
31 -122 56 -126 56 -5 0 -12 5 -15 10 -9 15 -8 15 121 -44z m32872 27 c-4 -24
-57 -49 -76 -37 -21 14 -18 27 9 41 36 19 71 17 67 -4z m-25662 -168 c-23 -17
-36 -19 -36 -6 0 11 18 19 40 20 11 0 10 -3 -4 -14z m10754 -33 c0 -12 -51
-34 -59 -27 -7 8 28 35 46 35 7 0 13 -4 13 -8z m-35762 -36 c4 -21 -25 -45
-55 -46 -33 0 -30 36 5 54 32 18 46 16 50 -8z m2092 -121 c0 -17 -38 -45 -62
-45 -31 0 -21 36 14 53 34 17 48 14 48 -8z m-11113 -90 c-7 -16 -47 -36 -59
-28 -17 9 -7 33 20 47 29 16 48 7 39 -19z m17271 -258 c2 -9 -9 -22 -27 -31
-38 -20 -47 -20 -55 -1 -4 10 5 22 27 35 36 22 50 21 55 -3z m3112 -7 c0 -12
-40 -33 -48 -25 -4 4 2 13 12 21 23 16 36 18 36 4z m-3245 -157 c-11 -7 -26
-13 -34 -13 -12 1 -10 6 8 20 12 11 28 17 34 13 6 -4 3 -11 -8 -20z m30035 2
c17 -21 6 -44 -31 -59 -74 -31 -110 21 -39 56 43 22 54 22 70 3z m-16970 -33
c0 -5 -11 -14 -25 -20 -31 -14 -33 1 -2 16 28 14 27 13 27 4z m31618 -91 c41
-25 -26 -71 -82 -57 -34 8 -33 27 2 48 30 19 60 22 80 9z m-42098 -216 c-7 -8
-20 -15 -29 -15 -13 1 -13 3 3 15 26 19 42 19 26 0z m14690 5 c-8 -5 -19 -10
-25 -10 -5 0 -3 5 5 10 8 5 20 10 25 10 6 0 3 -5 -5 -10z m-8670 -108 c0 -18
-37 -42 -65 -42 -23 0 -17 36 8 48 35 17 57 14 57 -6z m2390 8 c0 -10 -32 -30
-49 -30 -19 0 -12 17 12 28 28 14 37 14 37 2z m-14766 -26 c8 -22 3 -28 -44
-49 -46 -21 -67 -12 -55 25 11 36 87 55 99 24z m10831 -154 c-9 -15 -54 -32
-65 -25 -15 10 1 34 28 43 29 10 49 1 37 -18z m25835 -100 c0 -5 -8 -10 -17
-10 -15 0 -16 2 -3 10 19 12 20 12 20 0z m-35550 -43 c0 -11 -44 -37 -62 -37
-19 0 -6 31 19 44 29 15 43 13 43 -7z m5255 4 c7 -12 -34 -41 -57 -41 -25 0
-23 16 4 34 25 18 44 20 53 7z m-2875 -61 c0 -12 -40 -34 -48 -26 -3 4 3 13
14 21 22 17 34 19 34 5z m1210 -3 c0 -12 -12 -21 -62 -45 -5 -2 -8 5 -8 16 0
10 10 24 23 30 31 15 47 14 47 -1z m11031 -28 c-29 -24 -51 -24 -51 -1 0 21
50 44 65 30 6 -6 2 -16 -14 -29z m-14041 -313 c0 -15 -47 -39 -61 -31 -16 11
-10 24 19 38 29 15 42 13 42 -7z m-6502 -608 c-3 -7 -13 -15 -23 -16 -15 -4
-16 -2 -4 12 17 19 32 21 27 4z m10242 -148 c0 -21 -27 -40 -59 -40 -30 0 -26
27 7 44 37 21 52 20 52 -4z m13670 -64 c0 -2 -7 -7 -16 -10 -8 -3 -12 -2 -9 4
6 10 25 14 25 6z m13950 -76 c0 -10 -32 -30 -49 -30 -18 0 -12 28 7 33 30 8
42 7 42 -3z m-22030 -160 c-26 -20 -50 -26 -50 -12 0 16 25 32 50 32 l25 0
-25 -20z m-560 -240 c0 -10 -32 -30 -49 -30 -20 0 -11 20 12 30 29 12 37 12
37 0z m-25795 -37 c-22 -16 -45 -17 -45 -3 0 13 41 30 54 22 5 -3 1 -11 -9
-19z m5055 -12 c0 -16 -30 -33 -46 -27 -13 5 -14 9 -4 21 13 16 50 21 50 6z
m10070 -180 c0 -25 -56 -49 -73 -32 -9 10 -7 17 12 32 30 25 61 25 61 0z
m-9983 -48 c6 -16 -35 -36 -55 -28 -15 6 -14 9 7 26 25 20 42 21 48 2z m39083
-147 c0 -2 -7 -7 -16 -10 -8 -3 -12 -2 -9 4 6 10 25 14 25 6z m-24270 -11 c0
-2 -10 -9 -22 -15 -22 -11 -22 -10 -4 4 21 17 26 19 26 11z m540 -95 c0 -12
-40 -34 -48 -26 -3 4 3 13 14 21 22 17 34 19 34 5z m16865 -126 c50 -23 99
-50 110 -59 l20 -17 -20 7 c-86 31 -206 87 -245 115 -32 23 47 -4 135 -46z
m8163 25 c3 -15 -35 -39 -63 -39 -23 0 -17 36 8 48 29 14 51 11 55 -9z m3102
-8 c0 -10 -25 -21 -48 -21 -15 1 -14 3 2 15 22 17 46 20 46 6z m-7880 -41 c0
-14 -39 -32 -52 -24 -7 4 -2 12 13 20 29 16 39 17 39 4z m-29944 -45 c-11 -8
-22 -12 -25 -9 -6 6 19 24 34 24 6 -1 1 -7 -9 -15z m19420 -30 c-26 -19 -42
-19 -26 0 7 8 20 15 29 15 13 -1 13 -3 -3 -15z m7414 -27 c178 -83 209 -99
215 -108 6 -9 -50 6 -70 20 -5 3 -32 15 -58 24 -51 19 -149 69 -182 93 -19 14
-19 15 5 8 14 -4 54 -21 90 -37z m-37490 -113 c6 -8 9 -19 5 -26 -10 -15 -74
-41 -85 -34 -19 12 -9 45 18 59 35 19 47 20 62 1z m62934 -21 c26 -10 19 -24
-20 -40 -28 -12 -39 -12 -50 -3 -18 14 -3 36 29 42 12 2 23 5 24 6 1 0 8 -2
17 -5z m-28009 -31 c-21 -15 -45 -17 -45 -5 0 12 43 31 54 24 5 -3 1 -11 -9
-19z m-5095 -56 c0 -13 -40 -37 -60 -37 -17 0 -11 28 8 39 24 15 52 13 52 -2z
m-2970 -42 c-14 -16 -40 -20 -40 -6 0 10 17 19 39 20 11 1 11 -2 1 -14z
m15130 -13 c0 -11 -51 -35 -58 -28 -3 3 1 12 8 21 13 16 50 21 50 7z m-22680
-12 c0 -17 -49 -43 -67 -35 -16 6 -16 8 6 26 25 20 61 26 61 9z m2790 -58 c0
-13 -49 -36 -57 -28 -5 4 1 14 11 22 22 15 46 19 46 6z m24630 0 c0 -14 -23
-32 -42 -32 -25 0 -22 19 5 30 28 11 37 12 37 2z m-8584 -47 c-11 -8 -27 -15
-35 -15 -13 1 -12 4 3 15 11 8 27 15 35 15 13 -1 12 -4 -3 -15z m-27016 -50
c0 -16 -38 -40 -48 -30 -4 4 4 15 17 26 28 23 31 23 31 4z m23610 -119 c0 -15
-59 -48 -72 -40 -14 9 -9 33 10 43 25 15 62 13 62 -3z m1164 8 c9 -3 16 -15
16 -25 0 -23 -60 -55 -84 -46 -25 10 -19 45 12 61 31 18 35 18 56 10z m12303
-71 c5 -15 -32 -35 -60 -31 l-22 3 23 23 c24 24 52 26 59 5z m5113 -7 c0 -14
-21 -26 -46 -26 -22 0 -16 20 9 30 31 12 37 12 37 -4z m-48537 -10 c7 -17 -11
-36 -35 -36 -23 0 -23 19 0 36 22 17 29 17 35 0z m37717 -41 c-27 -14 -36 -13
-25 4 3 6 16 11 28 11 21 -1 21 -1 -3 -15z m13394 -31 c43 -16 -11 -72 -61
-62 -26 5 -22 40 7 55 29 15 33 15 54 7z m-22969 -134 c-3 -5 -13 -10 -21 -10
-8 0 -12 5 -9 10 3 6 13 10 21 10 8 0 12 -4 9 -10z m5315 -30 c-24 -15 -37
-11 -16 5 11 8 22 12 25 9 3 -3 -1 -9 -9 -14z m-16994 -225 c-11 -8 -22 -12
-25 -9 -6 6 19 24 34 24 6 -1 1 -7 -9 -15z m-19246 -130 c0 -14 -29 -35 -49
-35 -20 0 -11 27 12 38 30 15 37 14 37 -3z m46318 -27 c18 -18 15 -26 -19 -44
-28 -14 -33 -14 -46 -1 -18 17 -10 35 21 47 29 12 30 12 44 -2z m-12292 -43
c-11 -8 -22 -12 -25 -9 -6 6 19 24 34 24 6 -1 1 -7 -9 -15z m-3882 -11 c8 -22
-1 -34 -37 -49 -36 -15 -57 -10 -57 15 0 37 81 67 94 34z m-8359 -294 c8 -13
-41 -43 -56 -34 -8 5 -4 13 12 25 27 21 35 23 44 9z m7880 -40 c-3 -5 -11 -10
-16 -10 -6 0 -7 5 -4 10 3 6 11 10 16 10 6 0 7 -4 4 -10z m-24957 -87 c-4 -22
-38 -30 -38 -10 0 14 13 24 33 26 5 1 7 -7 5 -16z m21407 -23 c-9 -15 -45 -32
-45 -22 0 5 10 14 23 20 29 14 29 14 22 2z m-10997 -117 c-2 -10 -16 -24 -32
-32 -24 -11 -30 -11 -37 0 -6 10 -1 20 14 31 29 23 60 23 55 1z m-16621 -99
c7 -20 -15 -43 -47 -46 -34 -4 -34 32 0 49 33 17 39 16 47 -3z m22943 -92 c0
-11 -51 -35 -58 -28 -3 3 1 12 8 21 13 16 50 21 50 7z m5620 0 c0 -5 -11 -14
-25 -20 -29 -13 -33 -5 -7 14 20 15 32 18 32 6z m-27372 -24 c17 -17 15 -26
-10 -42 -43 -26 -65 -28 -71 -6 -3 14 3 26 21 40 31 23 44 24 60 8z m25237
-258 c-3 -5 -12 -10 -18 -10 -7 0 -6 4 3 10 19 12 23 12 15 0z m12215 -70 c0
-12 -33 -30 -54 -30 -19 0 -21 26 -3 33 21 9 57 7 57 -3z m3938 -42 c20 -20
14 -37 -18 -53 -38 -20 -74 -19 -91 1 -29 36 76 85 109 52z m-8428 -6 c0 -9
-44 -32 -58 -32 -10 1 38 40 49 40 5 0 9 -4 9 -8z m-13073 -109 c4 -11 -45
-43 -67 -43 -18 0 -11 28 13 45 24 17 48 16 54 -2z m143 -3 c0 -5 -11 -17 -26
-26 -20 -13 -28 -14 -37 -5 -9 10 -8 16 7 27 23 16 56 19 56 4z m7630 -58 c0
-9 -44 -32 -58 -32 -10 1 38 40 49 40 5 0 9 -4 9 -8z m7538 -24 c-6 -16 -55
-34 -65 -24 -10 10 26 36 50 36 10 0 17 -5 15 -12z m-16468 -109 c0 -11 -54
-39 -75 -39 -26 0 -16 29 17 50 31 19 58 14 58 -11z m44855 -9 c-3 -5 -13 -10
-21 -10 -8 0 -12 5 -9 10 3 6 13 10 21 10 8 0 12 -4 9 -10z m-53138 -136 c8
-21 -34 -55 -62 -51 -31 3 -30 34 2 51 36 20 52 20 60 0z m18108 -3 c7 -12
-34 -41 -57 -41 -25 0 -23 14 5 33 25 18 43 21 52 8z m-22289 -183 c8 -13 -30
-48 -52 -48 -23 0 -16 36 9 48 29 14 34 14 43 0z m26014 -133 c-14 -7 -27 -11
-30 -9 -6 7 22 24 40 23 9 0 5 -6 -10 -14z m3260 6 c0 -5 -10 -11 -22 -14 -22
-6 -22 -6 -4 8 23 17 26 18 26 6z m-4622 -117 c-9 -9 -22 -14 -30 -11 -8 3 -4
8 12 15 35 15 37 14 18 -4z m14292 -142 c0 -5 -11 -14 -25 -20 -31 -14 -33 1
-2 16 28 14 27 13 27 4z m-6130 -134 c-20 -17 -21 -20 -5 -14 31 12 33 12 36
1 2 -11 -47 -42 -54 -35 -16 17 -9 45 13 57 36 18 39 16 10 -9z m-1230 -62 c0
-14 -57 -43 -66 -33 -9 9 6 28 30 37 30 12 36 12 36 -4z m-29626 -152 c3 -9 6
-20 6 -25 0 -13 -60 -41 -76 -35 -24 9 -16 44 14 60 35 20 48 20 56 0z m24775
2 c-2 -2 -15 -9 -29 -15 -24 -11 -24 -11 -6 3 16 13 49 24 35 12z m-17629
-109 c0 -13 -40 -37 -60 -37 -16 0 -11 22 8 36 22 17 52 18 52 1z m29737 -184
c4 -11 -45 -43 -67 -43 -17 0 -11 38 8 49 21 13 54 10 59 -6z m-17459 -85 c4
-19 -52 -53 -74 -44 -21 8 -17 33 9 51 27 19 61 16 65 -7z m13892 -3 c-13 -16
-40 -21 -40 -7 0 10 42 32 49 26 2 -2 -2 -10 -9 -19z m-18153 -52 c6 -16 -55
-53 -73 -46 -21 8 -17 30 9 48 25 17 58 16 64 -2z m6303 -61 c0 -12 -51 -34
-59 -27 -7 8 28 35 46 35 7 0 13 -4 13 -8z m-3500 -16 c0 -16 -37 -46 -57 -46
-19 0 -16 37 5 49 25 15 52 13 52 -3z m-22172 -298 c2 -12 -34 -38 -53 -38
-11 0 -4 25 12 42 18 21 36 19 41 -4z m12872 -166 c0 -14 -23 -32 -42 -32 -23
0 -23 16 0 29 21 13 42 14 42 3z m2900 -33 c0 -16 -31 -38 -52 -39 -10 0 -18
7 -18 15 0 16 27 34 53 35 9 0 17 -5 17 -11z m34580 -38 c0 -10 7 -24 15 -31
25 -20 17 -35 -29 -58 -53 -27 -51 -27 -76 -2 -28 28 -25 42 12 71 57 42 78
48 78 20z m-16620 -241 c-8 -5 -19 -10 -25 -10 -5 0 -3 5 5 10 8 5 20 10 25
10 6 0 3 -5 -5 -10z m-11440 -38 c0 -11 -51 -35 -58 -27 -7 7 29 34 46 35 6 0
12 -4 12 -8z m29355 -12 c6 -9 -44 -40 -65 -40 -11 0 -14 33 -3 43 10 10 61 8
68 -3z m-46157 -72 c2 -11 -8 -23 -27 -32 -41 -21 -51 -20 -51 7 0 38 71 61
78 25z m28712 -133 c0 -17 -30 -35 -60 -35 -28 0 -21 21 11 37 32 17 49 16 49
-2z m-21362 -38 c2 -10 -10 -24 -30 -37 -28 -17 -35 -18 -47 -5 -12 12 -12 16
0 31 15 18 49 34 64 30 6 -1 11 -10 13 -19z m5267 -56 c8 -14 -33 -34 -53 -26
-15 6 -15 8 2 21 23 16 42 18 51 5z m8185 -21 c-8 -6 -22 -10 -30 -9 -9 0 -5
6 10 14 27 14 44 10 20 -5z m17874 -45 c6 -18 -17 -43 -49 -51 -30 -7 -45 2
-45 27 0 33 82 54 94 24z m-31209 -125 c7 -12 -42 -36 -53 -26 -4 4 2 14 12
22 23 17 33 18 41 4z m-14035 -36 c0 -20 -28 -43 -51 -44 -27 0 -30 28 -6 45
28 20 57 19 57 -1z m15705 -154 c-3 -5 -11 -10 -16 -10 -6 0 -7 5 -4 10 3 6
11 10 16 10 6 0 7 -4 4 -10z m9041 -125 c-23 -17 -36 -19 -36 -6 0 11 18 19
40 20 11 0 10 -3 -4 -14z m17404 -90 c21 -25 7 -49 -37 -64 -48 -17 -73 -5
-73 34 0 38 84 61 110 30z m-15862 -157 c4 -18 -52 -53 -68 -43 -18 11 -10 42
13 53 29 14 51 11 55 -10z m-3758 4 c0 -5 -11 -14 -25 -20 -26 -12 -33 -4 -13
16 14 14 38 16 38 4z m-7733 -119 c3 -7 -8 -19 -22 -29 -20 -13 -29 -14 -38
-5 -9 10 -7 17 12 32 25 20 42 21 48 2z m8763 -78 c0 -2 -13 -11 -30 -20 -30
-16 -40 -9 -18 13 12 12 48 17 48 7z m2180 -163 c0 -13 -49 -36 -57 -28 -5 4
1 14 11 22 22 15 46 19 46 6z m15478 -139 c-2 -9 -18 -23 -36 -30 -29 -12 -33
-11 -39 3 -8 21 21 44 55 44 17 0 23 -5 20 -17z m-20830 -10 c-4 -19 -53 -41
-65 -29 -10 9 33 46 54 46 8 0 13 -7 11 -17z m22427 -172 c6 -11 -32 -41 -52
-41 -19 0 -16 27 5 39 22 13 39 14 47 2z m-42232 -8 c9 -9 -12 -33 -29 -33 -8
0 -14 7 -14 16 0 10 5 14 16 10 8 -3 12 -2 9 4 -7 11 8 14 18 3z m9734 -149
c-3 -3 -12 -4 -19 -1 -8 3 -5 6 6 6 11 1 17 -2 13 -5z m19693 -99 c-14 -16
-50 -21 -50 -6 0 9 52 31 59 25 2 -2 -2 -10 -9 -19z m18090 -164 c0 -12 -39
-25 -48 -16 -7 7 17 25 36 25 6 0 12 -4 12 -9z m-29434 -16 c-23 -17 -36 -19
-36 -6 0 11 18 19 40 20 11 0 10 -3 -4 -14z m18814 -144 c0 -5 -10 -11 -22
-14 -22 -6 -22 -6 -4 8 23 17 26 18 26 6z m-25320 -49 c0 -24 -48 -48 -64 -32
-8 8 -4 16 14 30 32 25 50 25 50 2z m25750 8 c0 -13 -48 -35 -57 -27 -8 8 26
36 45 37 6 0 12 -5 12 -10z m-4040 -114 c0 -2 -7 -7 -16 -10 -8 -3 -12 -2 -9
4 6 10 25 14 25 6z m-16555 -15 c6 -11 -32 -41 -52 -41 -19 0 -16 21 5 36 20
16 39 18 47 5z m15271 -6 c-26 -19 -42 -19 -26 0 7 8 20 15 29 15 13 -1 13 -3
-3 -15z m-13876 -95 c0 -12 -56 -41 -64 -33 -12 12 -6 22 21 37 28 14 43 13
43 -4z m-5953 -77 c2 -6 -10 -19 -28 -28 -26 -14 -33 -15 -40 -3 -6 9 -2 19
13 31 23 19 49 19 55 0z m40693 -1 c0 -11 -11 -24 -25 -30 -36 -16 -43 -15
-50 9 -8 25 8 39 48 39 20 0 27 -5 27 -18z m-17392 -44 c-6 -16 -55 -34 -65
-24 -10 10 26 36 50 36 10 0 17 -5 15 -12z m-33574 -107 c8 -12 -21 -34 -34
-26 -8 5 -8 11 1 21 13 16 25 18 33 5z m17266 -294 c0 -17 -47 -40 -55 -27 -3
5 5 16 17 24 27 20 38 20 38 3z m2815 -216 c7 -12 -44 -53 -59 -48 -21 7 -17
34 6 45 29 14 45 15 53 3z m20746 -141 c-12 -11 -27 -17 -33 -14 -11 7 21 33
42 33 10 0 8 -6 -9 -19z m14169 -109 c0 -5 -9 -11 -20 -14 -22 -6 -28 8 -7 16
19 8 27 8 27 -2z m-25039 -75 c-17 -20 -51 -27 -51 -11 0 13 17 21 49 24 10 1
11 -2 2 -13z m-16181 -106 c-17 -11 -40 -13 -40 -4 0 15 35 32 45 23 6 -7 5
-13 -5 -19z m-16114 -52 c7 -12 -21 -38 -42 -38 -13 0 -13 17 -1 38 10 15 34
16 43 0z m22044 -102 c0 -16 -42 -46 -64 -46 -26 0 -30 23 -6 42 26 21 70 24
70 4z m3865 -315 c6 -11 -32 -41 -52 -41 -21 0 -15 26 10 38 28 14 35 14 42 3z
m11041 -96 c-11 -8 -22 -12 -25 -9 -6 6 19 24 34 24 6 -1 1 -7 -9 -15z
m-24548 -31 c4 -28 -56 -60 -76 -40 -16 16 -7 40 21 54 31 15 52 10 55 -14z
m12052 8 c0 -14 -23 -32 -42 -32 -23 0 -23 16 0 29 21 13 42 14 42 3z m-5190
-12 c0 -12 -40 -34 -47 -26 -9 8 17 36 33 36 8 0 14 -4 14 -10z m-13962 -90
c2 -20 -5 -29 -32 -44 -19 -10 -42 -16 -50 -13 -25 10 -19 43 11 67 35 27 67
23 71 -10z m-3858 -4 c0 -8 -4 -17 -9 -21 -6 -3 -9 4 -8 15 1 23 17 28 17 6z
m35680 -61 c0 -2 -13 -11 -30 -20 -30 -16 -40 -9 -18 13 12 12 48 17 48 7z
m-17440 -65 c0 -14 -48 -35 -58 -26 -8 9 26 36 45 36 7 0 13 -5 13 -10z m5450
-195 c-15 -18 -50 -26 -50 -11 0 14 41 36 53 29 4 -3 3 -11 -3 -18z m9018
-223 c7 -21 -33 -52 -68 -52 -28 0 -45 26 -31 48 19 30 87 33 99 4z m-34388
-17 c0 -17 -39 -30 -52 -17 -6 6 -2 15 13 25 24 17 39 14 39 -8z m37160 -25
c0 -12 -40 -33 -48 -25 -4 4 2 13 12 21 23 16 36 18 36 4z m-35105 -20 c0 -7
-6 -15 -14 -18 -8 -3 -11 0 -7 7 4 6 2 11 -3 11 -6 0 -11 -5 -11 -12 0 -6 -3
-8 -6 -5 -10 9 17 38 30 34 6 -2 11 -10 11 -17z m20075 -265 c0 -2 -10 -9 -22
-15 -22 -11 -22 -10 -4 4 21 17 26 19 26 11z m-23740 -20 c0 -14 -29 -35 -49
-35 -15 0 -14 23 1 38 17 17 48 15 48 -3z m57150 -45 c13 -9 12 -13 -9 -30
-31 -27 -68 -26 -76 1 -5 14 -2 25 6 30 19 12 61 11 79 -1z m-28030 -44 c0
-18 -48 -49 -66 -42 -19 7 -18 33 4 45 25 15 62 13 62 -3z m11090 -221 c0 -16
-58 -47 -72 -39 -12 8 4 35 26 44 32 13 46 12 46 -5z m15725 6 c7 -12 -34 -41
-57 -41 -18 0 -25 29 -11 43 10 10 61 8 68 -2z m-29938 -208 c2 -5 -8 -18 -23
-28 -20 -13 -29 -14 -38 -5 -8 9 -5 16 13 31 25 20 42 21 48 2z m-28242 -13
c8 -13 -31 -50 -55 -50 -27 0 -25 24 3 43 26 19 43 21 52 7z m51303 -92 c16
-16 -2 -44 -38 -56 -25 -9 -31 -8 -40 8 -14 26 -13 28 18 44 33 19 45 19 60 4z
m4726 -117 c3 -4 -6 -13 -20 -20 -32 -14 -34 -14 -34 3 0 21 43 35 54 17z
m-14281 -31 c36 -42 12 -80 -52 -80 -67 0 -45 91 24 99 6 0 18 -8 28 -19z
m-37639 -5 c4 -10 -5 -22 -27 -35 -29 -18 -57 -26 -57 -16 0 2 -3 11 -6 19 -4
10 4 21 23 31 36 20 59 20 67 1z m48226 -69 c0 -2 -7 -6 -15 -10 -8 -3 -15 -1
-15 4 0 6 7 10 15 10 8 0 15 -2 15 -4z m-15584 -41 c-27 -21 -53 -20 -36 0 7
8 22 15 34 15 21 -1 21 -1 2 -15z m-22708 -107 c3 -16 -42 -48 -66 -48 -22 0
-23 35 -1 53 27 21 63 19 67 -5z m172 -77 c0 -15 -28 -33 -40 -26 -8 5 -8 11
1 21 13 15 39 19 39 5z m-13966 -56 c6 -17 -50 -58 -66 -49 -15 9 -8 31 15 47
28 20 43 21 51 2z m25084 -42 c7 -50 -95 -102 -112 -57 -12 30 -6 44 27 64 41
26 81 23 85 -7z m-3168 -22 c0 -5 -9 -11 -21 -14 -16 -4 -18 -3 -8 9 13 16 29
19 29 5z m-7511 -145 c9 -11 6 -18 -19 -36 -17 -12 -37 -19 -45 -16 -23 8 -18
42 8 54 30 15 43 14 56 -2z m8238 -303 c6 -16 -43 -47 -62 -39 -22 8 -18 31 8
44 27 13 49 11 54 -5z m14401 -25 c-3 -7 -15 -14 -29 -16 -23 -2 -23 -2 -5 13
24 18 39 20 34 3z m17597 -118 c-3 -5 -12 -10 -18 -10 -7 0 -6 4 3 10 19 12
23 12 15 0z m-54885 -35 c0 -12 -47 -45 -65 -45 -11 0 -4 24 12 42 19 22 53
24 53 3z m44170 -185 c-8 -5 -19 -10 -25 -10 -5 0 -3 5 5 10 8 5 20 10 25 10
6 0 3 -5 -5 -10z m-40050 -14 c0 -16 -27 -29 -42 -20 -7 5 -4 12 7 21 24 17
35 17 35 -1z m23830 -11 c-13 -16 -40 -21 -40 -7 0 10 42 32 49 26 2 -2 -2
-10 -9 -19z m13805 -75 c-27 -12 -43 -12 -25 0 8 5 22 9 30 9 10 0 8 -3 -5 -9z
m-40147 -87 c-2 -10 -16 -24 -31 -33 -24 -13 -29 -13 -37 0 -7 11 -3 20 13 32
29 23 60 23 55 1z m15428 -78 c-11 -8 -22 -12 -25 -9 -6 6 19 24 34 24 6 -1 1
-7 -9 -15z m-11969 -122 c-13 -13 -20 -14 -29 -5 -9 9 -8 15 8 26 26 20 44 2
21 -21z m5326 -26 c7 -19 -3 -32 -40 -51 -31 -15 -33 -15 -43 3 -8 16 -6 24
12 41 25 23 63 27 71 7z m3492 -62 c0 -12 -11 -25 -29 -33 -24 -12 -30 -12
-43 1 -13 13 -12 17 8 36 29 26 64 24 64 -4z m26425 -35 c0 -14 -68 -45 -77
-36 -5 4 3 16 16 27 25 20 61 26 61 9z m-580 -214 c0 -15 -54 -39 -64 -28 -10
9 26 42 46 42 10 0 18 -6 18 -14z m-20767 -63 c12 -11 -25 -43 -50 -43 -27 0
-30 17 -5 36 19 15 45 18 55 7z m23078 -117 c-14 -16 -51 -28 -51 -16 0 11 30
29 49 30 10 0 11 -3 2 -14z m13104 -143 c16 -16 16 -18 -5 -35 -30 -25 -67
-23 -75 3 -8 23 -8 22 20 37 28 16 41 15 60 -5z m-25441 -48 c0 -5 -12 -17
-27 -25 -21 -12 -29 -12 -39 -2 -9 9 -8 15 8 27 21 16 59 16 58 0z m-7484 -65
c0 -12 -40 -33 -48 -25 -4 4 2 13 12 21 23 16 36 18 36 4z m6208 -72 c-2 -6
-16 -21 -31 -31 -22 -17 -29 -18 -42 -7 -14 12 -14 15 1 31 19 21 78 27 72 7z
m19387 -118 c-3 -5 -12 -10 -18 -10 -7 0 -6 4 3 10 19 12 23 12 15 0z m-9755
-73 c0 -18 -50 -41 -62 -29 -12 12 18 42 43 42 10 0 19 -6 19 -13z m-4392
-405 c5 -15 -42 -36 -63 -28 -20 7 -11 24 19 36 25 10 38 8 44 -8z m-17062
-43 c16 -13 19 -45 4 -54 -7 -4 -7 -12 0 -25 13 -24 13 -73 0 -65 -5 3 -10 1
-10 -4 0 -6 -14 -11 -31 -11 -17 0 -37 -7 -45 -15 -20 -20 -88 -19 -108 1 -18
17 -22 69 -6 79 6 4 4 17 -5 35 -22 42 -19 68 8 72 43 8 179 -1 193 -13z
m35634 2 c0 -10 -25 -21 -48 -21 -15 1 -14 3 2 15 22 17 46 20 46 6z m-14000
-171 c0 -14 -48 -35 -58 -26 -8 9 26 36 45 36 7 0 13 -5 13 -10z m-11869 -20
c-12 -11 -27 -17 -33 -14 -14 9 12 34 36 34 21 -1 21 -1 -3 -20z m-25601 -209
c0 -12 -29 -35 -36 -28 -7 6 17 36 29 37 4 0 7 -4 7 -9z m53298 -63 c-6 -19
-51 -39 -62 -28 -5 5 -6 16 -3 24 8 20 71 23 65 4z m-30320 -150 c-6 -17 -36
-34 -45 -24 -4 4 1 14 11 22 24 17 39 18 34 2z m-3424 -114 c28 -11 18 -43
-19 -61 -32 -15 -37 -15 -51 -2 -18 19 -10 43 19 57 27 13 31 14 51 6z m8606
-178 c0 -19 -38 -46 -56 -39 -19 7 -17 30 4 42 25 15 52 13 52 -3z m-7732
-148 c4 -18 -52 -53 -68 -43 -17 10 -11 33 13 50 27 19 51 16 55 -7z m12287
-177 c7 -12 -33 -41 -57 -41 -26 0 -33 21 -13 37 22 15 61 17 70 4z m-18458
-478 c6 -17 -56 -48 -70 -34 -7 7 -5 17 8 31 20 22 56 24 62 3z m19810 -90 c5
-15 -51 -45 -71 -37 -22 8 -20 20 7 39 24 17 58 16 64 -2z m-1357 -98 c0 -22
-59 -50 -74 -35 -8 9 -5 16 13 31 28 23 61 25 61 4z m-11885 -72 c8 -23 -36
-63 -69 -63 -40 0 -49 50 -13 68 35 17 74 14 82 -5z m-6390 -39 c-23 -17 -32
-10 -15 11 7 8 17 12 23 8 6 -4 3 -11 -8 -19z m26140 -374 c-3 -5 -14 -10 -23
-10 -15 0 -15 2 -2 10 20 13 33 13 25 0z m-32337 -163 c5 -24 -43 -67 -73 -67
-35 0 -42 26 -15 55 33 36 82 42 88 12z m21687 -147 c-3 -5 -13 -10 -21 -10
-8 0 -12 5 -9 10 3 6 13 10 21 10 8 0 12 -4 9 -10z m-1045 -75 c0 -16 -46 -32
-58 -20 -8 8 26 35 45 35 7 0 13 -7 13 -15z m-16686 -131 c18 -7 10 -33 -18
-56 -26 -22 -50 -23 -66 -3 -9 11 -7 19 14 40 25 25 42 30 70 19z m34566 -232
c0 -11 -41 -34 -48 -27 -4 4 2 13 12 21 22 15 36 18 36 6z m-16520 -42 c0 -5
-11 -17 -26 -26 -20 -13 -28 -14 -37 -5 -9 10 -8 16 7 27 23 16 56 19 56 4z
m4920 -115 c-14 -16 -40 -20 -40 -6 0 10 17 19 39 20 11 1 11 -2 1 -14z m5896
-240 c-11 -8 -22 -12 -25 -9 -6 6 19 24 34 24 6 -1 1 -7 -9 -15z m-17776 -229
c0 -15 -21 -26 -48 -26 -14 1 -12 5 7 20 27 23 41 25 41 6z m24280 -269 c0
-17 -47 -43 -57 -33 -8 8 32 46 48 46 5 0 9 -6 9 -13z m-23234 -52 c-27 -21
-53 -20 -36 0 7 8 22 15 34 15 21 -1 21 -1 2 -15z m7934 -173 c0 -5 -12 -14
-26 -21 -32 -14 -54 -3 -29 16 21 14 55 18 55 5z m5400 -41 c0 -14 -41 -41
-62 -41 -27 0 -22 17 10 34 31 18 52 20 52 7z m-40270 -116 c0 -2 -10 -10 -22
-16 -21 -11 -22 -11 -9 4 13 16 31 23 31 12z m38020 -155 c-20 -13 -33 -13
-25 0 3 6 14 10 23 10 15 0 15 -2 2 -10z m-34755 -206 c-36 -29 -55 -31 -55
-6 0 22 60 55 75 40 7 -6 0 -18 -20 -34z m5985 -5 c0 -5 -11 -16 -26 -25 -18
-12 -28 -14 -36 -6 -8 8 -5 16 13 30 22 19 49 19 49 1z m-8130 -86 c0 -15 -45
-53 -62 -53 -27 0 -22 16 15 39 33 22 47 26 47 14z m19460 -73 c0 -5 -5 -10
-11 -10 -5 0 -7 5 -4 10 3 6 8 10 11 10 2 0 4 -4 4 -10z m-3190 -113 c0 -19
-38 -39 -57 -29 -13 8 -12 11 8 26 28 19 49 21 49 3z m26015 -7 c-3 -5 -13
-10 -21 -10 -8 0 -12 5 -9 10 3 6 13 10 21 10 8 0 12 -4 9 -10z m-25908 -125
c3 -9 -2 -22 -13 -30 -42 -32 -84 -6 -44 27 27 22 49 23 57 3z m33694 1 c-13
-15 -51 -28 -51 -17 0 14 24 31 43 31 16 0 17 -3 8 -14z m-18786 -53 c-21 -15
-45 -17 -45 -5 0 12 43 31 54 24 5 -3 1 -11 -9 -19z m1474 -4 c-8 -5 -21 -9
-29 -9 -12 1 -11 4 4 15 10 8 23 12 29 8 5 -3 3 -9 -4 -14z m31386 -15 c-23
-17 -37 -18 -53 -2 -18 18 26 40 52 26 19 -10 19 -11 1 -24z m-14602 -128 c9
-23 -49 -61 -71 -47 -17 10 -4 41 22 51 31 13 43 12 49 -4z m-44463 -20 c0
-17 -46 -56 -65 -56 -26 0 -24 29 3 49 32 24 62 27 62 7z m22410 -5 c0 -11
-31 -24 -39 -16 -3 3 1 10 9 15 19 12 30 12 30 1z"/>
</g>
</svg>
